<svg id="Layer_1" data-name="Layer 1" xmlns="http://www.w3.org/2000/svg" viewBox="0 0 586 586"><defs><style>.cls-1{fill:#2b3990;}.cls-2{fill:#8dc63f;}.cls-3{fill:#fff;}</style></defs><circle class="cls-1" cx="293" cy="293" r="293"/><path class="cls-2" d="M285.37,575.29c53.34,22.92,112.07,19.67,174.19,0a222.82,222.82,0,0,0,61.65-154.12c0-123.55-100.16-223.71-223.71-223.71S73.79,297.62,73.79,421.17c0,119.48,93.67,217.07,211.58,223.37Z" transform="translate(-4.5 -128)"/><circle class="cls-3" cx="317.89" cy="266.04" r="116.93"/><path class="cls-1" d="M361.79,390.28c-18.4-11-19.13-30.76-10.68-45.1A56.78,56.78,0,1,0,379,395.26,32.74,32.74,0,0,1,361.79,390.28Z" transform="translate(-4.5 -128)"/></svg>